<svg version="1.1" xmlns="http://www.w3.org/2000/svg" xmlns:xlink="http://www.w3.org/1999/xlink" width="187" height="24"><defs/><g><path fill="rgb(33,33,33)" stroke="none" paint-order="stroke fill markers" fill-rule="evenodd" d=" M 38.4976065158844 20.699148654937744 C 38.4976065158844 20.699148654937744 38.4976065158844 3.873635411262512 38.4976065158844 3.873635411262512 C 38.4976065158844 3.873635411262512 32.92921507358551 3.873635411262512 32.92921507358551 3.873635411262512 C 32.92921507358551 3.873635411262512 32.92921507358551 20.699148654937744 32.92921507358551 20.699148654937744 C 32.92921507358551 20.699148654937744 38.4976065158844 20.699148654937744 38.4976065158844 20.699148654937744 Z M 62.04230046272278 20.699148654937744 C 62.04230046272278 20.699148654937744 62.04230046272278 3.873635411262512 62.04230046272278 3.873635411262512 C 62.04230046272278 3.873635411262512 57.001673102378845 3.873635411262512 57.001673102378845 3.873635411262512 C 57.001673102378845 3.873635411262512 57.001673102378845 12.514591693878174 57.001673102378845 12.514591693878174 C 57.001673102378845 12.514591693878174 50.353246092796326 3.873635411262512 50.353246092796326 3.873635411262512 C 50.353246092796326 3.873635411262512 45.696839451789856 3.873635411262512 45.696839451789856 3.873635411262512 C 45.696839451789856 3.873635411262512 45.696839451789856 20.699148654937744 45.696839451789856 20.699148654937744 C 45.696839451789856 20.699148654937744 50.7613228559494 20.699148654937744 50.7613228559494 20.699148654937744 C 50.7613228559494 20.699148654937744 50.7613228559494 12.106521010398865 50.7613228559494 12.106521010398865 C 50.7613228559494 12.106521010398865 57.38589382171631 20.699148654937744 57.38589382171631 20.699148654937744 C 57.38589382171631 20.699148654937744 62.04230046272278 20.699148654937744 62.04230046272278 20.699148654937744 Z M 83.30560755729675 8.266095995903015 C 83.30560755729675 8.266095995903015 83.30560755729675 3.873635411262512 83.30560755729675 3.873635411262512 C 83.30560755729675 3.873635411262512 68.16043937206268 3.873635411262512 68.16043937206268 3.873635411262512 C 68.16043937206268 3.873635411262512 68.16043937206268 8.266095995903015 68.16043937206268 8.266095995903015 C 68.16043937206268 8.266095995903015 72.93694043159485 8.266095995903015 72.93694043159485 8.266095995903015 C 72.93694043159485 8.266095995903015 72.93694043159485 20.699148654937744 72.93694043159485 20.699148654937744 C 72.93694043159485 20.699148654937744 78.50533187389374 20.699148654937744 78.50533187389374 20.699148654937744 C 78.50533187389374 20.699148654937744 78.50533187389374 8.266095995903015 78.50533187389374 8.266095995903015 C 78.50533187389374 8.266095995903015 83.30560755729675 8.266095995903015 83.30560755729675 8.266095995903015 Z M 103.65733695030212 8.09796679019928 C 103.65733695030212 8.09796679019928 103.65733695030212 3.873635411262512 103.65733695030212 3.873635411262512 C 103.65733695030212 3.873635411262512 89.42447924613953 3.873635411262512 89.42447924613953 3.873635411262512 C 89.42447924613953 3.873635411262512 89.42447924613953 20.699148654937744 89.42447924613953 20.699148654937744 C 89.42447924613953 20.699148654937744 103.87350690364838 20.699148654937744 103.87350690364838 20.699148654937744 C 103.87350690364838 20.699148654937744 103.87350690364838 16.474817276000977 103.87350690364838 16.474817276000977 C 103.87350690364838 16.474817276000977 94.99287068843842 16.474817276000977 94.99287068843842 16.474817276000977 C 94.99287068843842 16.474817276000977 94.99287068843842 14.386475563049316 94.99287068843842 14.386475563049316 C 94.99287068843842 14.386475563049316 102.8654465675354 14.386475563049316 102.8654465675354 14.386475563049316 C 102.8654465675354 14.386475563049316 102.8654465675354 10.162484526634216 102.8654465675354 10.162484526634216 C 102.8654465675354 10.162484526634216 94.99287068843842 10.162484526634216 94.99287068843842 10.162484526634216 C 94.99287068843842 10.162484526634216 94.99287068843842 8.09796679019928 94.99287068843842 8.09796679019928 C 94.99287068843842 8.09796679019928 103.65733695030212 8.09796679019928 103.65733695030212 8.09796679019928 Z M 120.45687699317932 20.699148654937744 C 120.45687699317932 20.699148654937744 126.74526500701904 20.699148654937744 126.74526500701904 20.699148654937744 C 126.74526500701904 20.699148654937744 123.43293881416321 15.226781249046326 123.43293881416321 15.226781249046326 C 125.16140282154083 14.170698404312134 126.0971622467041 12.346462488174438 126.0971622467041 9.898378729820251 C 126.0971622467041 6.057953715324402 123.48105800151825 3.873635411262512 118.92072689533234 3.873635411262512 C 118.92072689533234 3.873635411262512 110.78394329547882 3.873635411262512 110.78394329547882 3.873635411262512 C 110.78394329547882 3.873635411262512 110.78394329547882 20.699148654937744 110.78394329547882 20.699148654937744 C 110.78394329547882 20.699148654937744 116.35233473777771 20.699148654937744 116.35233473777771 20.699148654937744 C 116.35233473777771 20.699148654937744 116.35233473777771 16.330852389335632 116.35233473777771 16.330852389335632 C 116.35233473777771 16.330852389335632 118.44075632095337 16.330852389335632 118.44075632095337 16.330852389335632 C 118.44075632095337 16.330852389335632 120.45687699317932 20.699148654937744 120.45687699317932 20.699148654937744 Z M 116.35233473777771 12.106521010398865 C 116.35233473777771 12.106521010398865 116.35233473777771 8.09796679019928 116.35233473777771 8.09796679019928 C 116.35233473777771 8.09796679019928 118.92072689533234 8.09796679019928 118.92072689533234 8.09796679019928 C 120.12069404125214 8.09796679019928 120.81683456897736 8.818131566047668 120.81683456897736 10.06616759300232 C 120.81683456897736 11.362532258033752 120.12069404125214 12.106521010398865 118.92072689533234 12.106521010398865 C 118.92072689533234 12.106521010398865 116.35233473777771 12.106521010398865 116.35233473777771 12.106521010398865 Z M 138.55213403701782 20.699148654937744 C 138.55213403701782 20.699148654937744 138.55213403701782 3.873635411262512 138.55213403701782 3.873635411262512 C 138.55213403701782 3.873635411262512 132.98374259471893 3.873635411262512 132.98374259471893 3.873635411262512 C 132.98374259471893 3.873635411262512 132.98374259471893 20.699148654937744 132.98374259471893 20.699148654937744 C 132.98374259471893 20.699148654937744 138.55213403701782 20.699148654937744 138.55213403701782 20.699148654937744 Z M 154.15235829353333 3.7058465480804443 C 148.79972970485687 3.7058465480804443 144.9113574028015 7.281825423240662 144.9113574028015 12.274309873580933 C 144.9113574028015 17.290958642959595 148.79972970485687 20.939430475234985 154.15235829353333 20.939430475234985 C 159.50457978248596 20.939430475234985 163.39295208454132 17.26713466644287 163.39295208454132 12.274309873580933 C 163.39295208454132 7.305989742279053 159.50457978248596 3.7058465480804443 154.15235829353333 3.7058465480804443 Z M 154.22425210475922 8.338248610496521 C 156.14421582221985 8.338248610496521 157.68036592006683 9.994014978408813 157.68036592006683 12.298474192619324 C 157.68036592006683 14.602933406829834 156.14421582221985 16.30702841281891 154.22425210475922 16.30702841281891 C 152.30396270751953 16.30702841281891 150.623943567276 14.602933406829834 150.623943567276 12.298474192619324 C 150.623943567276 9.994014978408813 152.28010666370392 8.338248610496521 154.22425210475922 8.338248610496521 Z M 179.4240506887436 20.699148654937744 C 179.4240506887436 20.699148654937744 185.7124387025833 20.699148654937744 185.7124387025833 20.699148654937744 C 185.7124387025833 20.699148654937744 182.40019392967224 15.226781249046326 182.40019392967224 15.226781249046326 C 184.12825083732605 14.170698404312134 185.06433594226837 12.346462488174438 185.06433594226837 9.898378729820251 C 185.06433594226837 6.057953715324402 182.44823169708252 3.873635411262512 177.8879005908966 3.873635411262512 C 177.8879005908966 3.873635411262512 169.7511169910431 3.873635411262512 169.7511169910431 3.873635411262512 C 169.7511169910431 3.873635411262512 169.7511169910431 20.699148654937744 169.7511169910431 20.699148654937744 C 169.7511169910431 20.699148654937744 175.31950843334198 20.699148654937744 175.31950843334198 20.699148654937744 C 175.31950843334198 20.699148654937744 175.31950843334198 16.330852389335632 175.31950843334198 16.330852389335632 C 175.31950843334198 16.330852389335632 177.40793001651764 16.330852389335632 177.40793001651764 16.330852389335632 C 177.40793001651764 16.330852389335632 179.4240506887436 20.699148654937744 179.4240506887436 20.699148654937744 Z M 175.31950843334198 12.106521010398865 C 175.31950843334198 12.106521010398865 175.31950843334198 8.09796679019928 175.31950843334198 8.09796679019928 C 175.31950843334198 8.09796679019928 177.8879005908966 8.09796679019928 177.8879005908966 8.09796679019928 C 179.0878677368164 8.09796679019928 179.78400826454163 8.818131566047668 179.78400826454163 10.06616759300232 C 179.78400826454163 11.362532258033752 179.0878677368164 12.106521010398865 177.8879005908966 12.106521010398865 C 177.8879005908966 12.106521010398865 175.31950843334198 12.106521010398865 175.31950843334198 12.106521010398865 Z M 1.2498544454574585 11.031038641929626 C 1.2498544454574585 11.031038641929626 1.2498544454574585 1.8438326120376587 1.2498544454574585 1.8438326120376587 C 1.2498544454574585 1.8438326120376587 10.437362432479858 1.8438326120376587 10.437362432479858 1.8438326120376587 C 10.437362432479858 1.8438326120376587 10.437362432479858 11.031038641929626 10.437362432479858 11.031038641929626 C 10.437362432479858 11.031038641929626 1.2498544454574585 11.031038641929626 1.2498544454574585 11.031038641929626 C 1.2498544454574585 11.031038641929626 1.2498544454574585 11.031038641929626 1.2498544454574585 11.031038641929626 Z M 13.062504291534424 1.8438326120376587 C 13.062504291534424 1.8438326120376587 22.250012278556824 1.8438326120376587 22.250012278556824 1.8438326120376587 C 22.250012278556824 1.8438326120376587 22.250012278556824 11.031038641929626 22.250012278556824 11.031038641929626 C 22.250012278556824 11.031038641929626 13.062504291534424 11.031038641929626 13.062504291534424 11.031038641929626 C 13.062504291534424 11.031038641929626 13.062504291534424 1.8438326120376587 13.062504291534424 1.8438326120376587 C 13.062504291534424 1.8438326120376587 13.062504291534424 1.8438326120376587 13.062504291534424 1.8438326120376587 Z M 13.062504291534424 22.84364688396454 C 13.062504291534424 22.84364688396454 13.062504291534424 13.656100511550903 13.062504291534424 13.656100511550903 C 13.062504291534424 13.656100511550903 22.250012278556824 13.656100511550903 22.250012278556824 13.656100511550903 C 22.250012278556824 13.656100511550903 22.250012278556824 22.84364688396454 22.250012278556824 22.84364688396454 C 22.250012278556824 22.84364688396454 13.062504291534424 22.84364688396454 13.062504291534424 22.84364688396454 C 13.062504291534424 22.84364688396454 13.062504291534424 22.84364688396454 13.062504291534424 22.84364688396454 Z M 1.2498544454574585 22.84364688396454 C 1.2498544454574585 22.84364688396454 1.2498544454574585 13.656100511550903 1.2498544454574585 13.656100511550903 C 1.2498544454574585 13.656100511550903 10.437362432479858 13.656100511550903 10.437362432479858 13.656100511550903 C 10.437362432479858 13.656100511550903 10.437362432479858 22.84364688396454 10.437362432479858 22.84364688396454 C 10.437362432479858 22.84364688396454 1.2498544454574585 22.84364688396454 1.2498544454574585 22.84364688396454 C 1.2498544454574585 22.84364688396454 1.2498544454574585 22.84364688396454 1.2498544454574585 22.84364688396454 Z"/></g></svg>