<svg version="1.1" xmlns="http://www.w3.org/2000/svg" xmlns:xlink="http://www.w3.org/1999/xlink" width="122" height="42"><defs/><g><path fill="rgb(33,33,33)" stroke="none" paint-order="stroke fill markers" fill-rule="evenodd" d=" M 61 0.9998643398284912 C 72.04567396640778 0.9998643398284912 80.99999523162842 9.954276084899902 80.99999523162842 21.00009262561798 C 80.99999523162842 32.04556882381439 72.04567396640778 40.9999805688858 61 40.9999805688858 C 49.954326033592224 40.9999805688858 41.00000476837158 32.04556882381439 41.00000476837158 21.00009262561798 C 41.00000476837158 9.954276084899902 49.954326033592224 0.9998643398284912 61 0.9998643398284912 Z M 105.99998927116394 5.999836325645447 C 114.28430581092834 5.999836325645447 120.99998569488525 12.715815305709839 120.99998569488525 21.00009262561798 C 120.99998569488525 29.284369945526123 114.28430581092834 36.00000858306885 105.99998927116394 36.00000858306885 C 97.7157541513443 36.00000858306885 90.99999284744263 29.284369945526123 90.99999284744263 21.00009262561798 C 90.99999284744263 12.715815305709839 97.7157541513443 5.999836325645447 105.99998927116394 5.999836325645447 Z M 16.00001072883606 5.999836325645447 C 24.2842458486557 5.999836325645447 31.000007152557373 12.715815305709839 31.000007152557373 21.00009262561798 C 31.000007152557373 29.284369945526123 24.2842458486557 36.00000858306885 16.00001072883606 36.00000858306885 C 7.715694189071655 36.00000858306885 1.000014305114746 29.284369945526123 1.000014305114746 21.00009262561798 C 1.000014305114746 12.715815305709839 7.715694189071655 5.999836325645447 16.00001072883606 5.999836325645447 Z"/></g></svg>