<svg version="1.1" xmlns="http://www.w3.org/2000/svg" xmlns:xlink="http://www.w3.org/1999/xlink" width="25" height="25"><defs/><g><path fill="rgb(0,0,0)" stroke="none" paint-order="stroke fill markers" fill-rule="evenodd" d=" M 10.550767660140991 1.5000866651535034 C 9.331992506980896 1.5000866651535034 8.160196661949158 1.7424105405807495 7.035054445266724 2.2263776063919067 C 5.925382018089294 2.695369601249695 4.97260582447052 3.328066349029541 4.175667405128479 4.12514853477478 C 3.3790546655654907 4.937546133995056 2.7381982803344727 5.8983330726623535 2.2538310289382935 7.00784969329834 C 1.7850964069366455 8.117366313934326 1.5508512258529663 9.28133773803711 1.5508512258529663 10.49976396560669 C 1.5508512258529663 11.718530535697937 1.7850964069366455 12.882842302322388 2.2538310289382935 13.992358922958374 C 2.7381982803344727 15.101535201072693 3.3790546655654907 16.062662482261658 4.175667405128479 16.875060081481934 C 4.97260582447052 17.671801924705505 5.925382018089294 18.31266689300537 7.035054445266724 18.79663395881653 C 8.160196661949158 19.265625953674316 9.331992506980896 19.50012195110321 10.550767660140991 19.50012195110321 C 11.59750247001648 19.50012195110321 12.597583651542664 19.328248977661133 13.550766944885254 18.98416268825531 C 14.503543138504028 18.640757083892822 15.370991230010986 18.156449675559998 16.15237843990326 17.531240463256836 C 16.15237843990326 17.531240463256836 21.82417321205139 23.203048586845398 21.82417321205139 23.203048586845398 C 22.02690887451172 23.406233072280884 22.269458889961243 23.507655143737793 22.55068337917328 23.507655143737793 C 22.831907868385315 23.507655143737793 23.066478729248047 23.406233072280884 23.254070281982422 23.203048586845398 C 23.44125473499298 23.015519857406616 23.535213351249695 22.78136420249939 23.535213351249695 22.499900937080383 C 23.535213351249695 22.218778014183044 23.44125473499298 21.98428201675415 23.254070281982422 21.79675328731537 C 23.254070281982422 21.79675328731537 17.581949830055237 16.124945163726807 17.581949830055237 16.124945163726807 C 18.20684790611267 15.343859076499939 18.69121515750885 14.469178795814514 19.035295844078064 13.49988329410553 C 19.37864375114441 12.546924233436584 19.550684094429016 11.546997904777527 19.550684094429016 10.49976396560669 C 19.550684094429016 9.28133773803711 19.308541178703308 8.117366313934326 18.82417392730713 7.00784969329834 C 18.35543930530548 5.8983330726623535 17.714582920074463 4.937546133995056 16.902418971061707 4.12514853477478 C 16.105399131774902 3.328066349029541 15.152297258377075 2.695369601249695 14.043031930923462 2.2263776063919067 C 12.933440923690796 1.7424105405807495 11.769542813301086 1.5000866651535034 10.550767660140991 1.5000866651535034 C 10.550767660140991 1.5000866651535034 10.550767660140991 1.5000866651535034 10.550767660140991 1.5000866651535034 Z M 10.550767660140991 3.4921114444732666 C 11.48831832408905 3.4921114444732666 12.394115209579468 3.6796401739120483 13.269542455673218 4.054697632789612 C 14.128685712814331 4.429755091667175 14.871072769165039 4.930058598518372 15.496052265167236 5.554587125778198 C 16.12095034122467 6.17979633808136 16.62119448184967 6.922083377838135 16.996051907539368 7.7811079025268555 C 17.355276703834534 8.640472769737244 17.535296201705933 9.547145247459412 17.535296201705933 10.49976396560669 C 17.535296201705933 11.453063368797302 17.355276703834534 12.359395503997803 16.996051907539368 13.218760371208191 C 16.62119448184967 14.078125238418579 16.12095034122467 14.820752620697021 15.496052265167236 15.445281147956848 C 14.871072769165039 16.07049036026001 14.128685712814331 16.57045352458954 13.269542455673218 16.945510983467102 C 12.394115209579468 17.320228099822998 11.48831832408905 17.50775682926178 10.550767660140991 17.50775682926178 C 9.597665786743164 17.50775682926178 8.691136121749878 17.320228099822998 7.831992864608765 16.945510983467102 C 6.956972718238831 16.57045352458954 6.206932187080383 16.07049036026001 5.582034111022949 15.445281147956848 C 4.957054615020752 14.820752620697021 4.464789628982544 14.078125238418579 4.105564832687378 13.218760371208191 C 3.730381727218628 12.359395503997803 3.5431158542633057 11.453063368797302 3.5431158542633057 10.49976396560669 C 3.5431158542633057 9.547145247459412 3.730381727218628 8.640472769737244 4.105564832687378 7.7811079025268555 C 4.464789628982544 6.922083377838135 4.957054615020752 6.17979633808136 5.582034111022949 5.554587125778198 C 6.206932187080383 4.930058598518372 6.956972718238831 4.429755091667175 7.831992864608765 4.054697632789612 C 8.691136121749878 3.6796401739120483 9.597665786743164 3.4921114444732666 10.550767660140991 3.4921114444732666 C 10.550767660140991 3.4921114444732666 10.550767660140991 3.4921114444732666 10.550767660140991 3.4921114444732666 Z"/></g></svg>